<svg xmlns="http://www.w3.org/2000/svg" width="128" height="128" viewBox="0 0 33.867 33.867" id="linkedin"><path fill="#00a1ff" d="M17.765 22.097c1.284-4.794 7.205-4.403 7.205-.236v9.368c0 .88.708 1.588 1.588 1.588h3.344c.88 0 1.587-.708 1.587-1.588V18.39c0-7.585-13.863-8.499-13.795-2.482zM3.969 10.38c-.88 0-1.588.708-1.588 1.588v19.262c0 .88.708 1.588 1.588 1.588h3.344c.88 0 1.587-.708 1.587-1.588V11.967c0-.88-.708-1.588-1.587-1.588z" paint-order="fill markers stroke"></path><path fill="#00a1ff" d="M13.701 10.38c-.88 0-1.588.707-1.588 1.587v19.262c0 .88.709 1.588 1.588 1.588h3.344c.88 0 1.587-.708 1.587-1.588V11.967c0-.88-.708-1.588-1.587-1.588zM5.713 7.716a3.33 3.33 0 0 1-3.33-3.33 3.33 3.33 0 0 1 3.33-3.329 3.33 3.33 0 0 1 3.33 3.33 3.33 3.33 0 0 1-3.33 3.33z" paint-order="fill markers stroke"></path></svg>