<svg xmlns="http://www.w3.org/2000/svg" width="500" height="500" enable-background="new 0 0 500 500" viewBox="0 0 500 500" id="database"><path fill="#50A0F9" d="M249.754,319.458c-52.969,0-102.93-6.232-140.68-17.549c-29.969-8.984-65.695-25.483-65.695-53.069
		c0-6.903,5.598-12.5,12.5-12.5c6.904,0,12.5,5.597,12.5,12.5c0,7.114,14.982,19.262,47.875,29.122
		c35.484,10.637,82.896,16.496,133.5,16.496c48.682,0,94.805-5.482,129.873-15.438c6.639-1.885,13.553,1.97,15.438,8.611
		c1.887,6.641-1.969,13.553-8.609,15.438C349.229,313.638,300.68,319.458,249.754,319.458z"></path><path fill="#004799" d="M390.809,53.767c-37.869-11.352-87.963-17.604-141.055-17.604s-103.186,6.252-141.057,17.604
		C78.303,62.879,42.068,79.7,42.068,108.092c0,0.747,0.039,1.481,0.09,2.212c-0.207,0.949-0.322,1.932-0.322,2.943v276.34
		c0,1.155,0.156,2.271,0.424,3.343c2.715,26.376,37.258,42.236,66.438,50.983c37.869,11.353,87.965,17.604,141.057,17.604
		s103.186-6.252,141.055-17.604c30.396-9.111,66.629-25.933,66.629-54.324V108.092C457.438,79.7,421.205,62.879,390.809,53.767z
		 M382.877,417.455c-35.367,10.602-82.645,16.44-133.123,16.44c-50.48,0-97.758-5.839-133.125-16.44
		c-34.438-10.324-46.939-22.321-46.939-27.866c0-0.846-0.088-1.67-0.232-2.474V145.989c11.912,7.119,26.119,12.493,39.24,16.427
		c37.869,11.352,87.965,17.604,141.057,17.604c0.002,0,0.002,0,0.006,0c49.176,0,96.518-5.468,133.293-15.397
		c7.365-1.988,11.723-9.569,9.734-16.933c-1.986-7.364-9.566-11.723-16.934-9.734c-34.498,9.313-79.281,14.442-126.1,14.442
		c-50.48,0-97.758-5.839-133.125-16.44c-34.438-10.324-46.939-22.321-46.939-27.866s12.502-17.542,46.939-27.866
		c35.367-10.602,82.645-16.441,133.125-16.441c50.479,0,97.756,5.839,133.123,16.441c34.439,10.324,46.939,22.321,46.939,27.866
		v281.497C429.816,395.134,417.316,407.131,382.877,417.455z"></path><circle cx="373.678" cy="226.567" r="17.166" fill="#F9B719"></circle><circle cx="373.678" cy="360.964" r="17.166" fill="#F9B719"></circle></svg>